<svg id="visual" viewBox="0 0 1920 1080" width="1920" height="1080" xmlns="http://www.w3.org/2000/svg" xmlns:xlink="http://www.w3.org/1999/xlink" version="1.1"><rect x="0" y="0" width="1920" height="1080" fill="#002233"></rect><path d="M0 170L35.5 181.8C71 193.7 142 217.3 213.2 244C284.3 270.7 355.7 300.3 426.8 302.5C498 304.7 569 279.3 640 267.7C711 256 782 258 853.2 257.5C924.3 257 995.7 254 1066.8 256.8C1138 259.7 1209 268.3 1280 293.2C1351 318 1422 359 1493.2 377C1564.3 395 1635.7 390 1706.8 364.8C1778 339.7 1849 294.3 1884.5 271.7L1920 249L1920 0L1884.5 0C1849 0 1778 0 1706.8 0C1635.7 0 1564.3 0 1493.2 0C1422 0 1351 0 1280 0C1209 0 1138 0 1066.8 0C995.7 0 924.3 0 853.2 0C782 0 711 0 640 0C569 0 498 0 426.8 0C355.7 0 284.3 0 213.2 0C142 0 71 0 35.5 0L0 0Z" fill="#009473" stroke-linecap="round" stroke-linejoin="miter"></path></svg>