<svg id="visual" viewBox="0 0 900 600" width="900" height="600" xmlns="http://www.w3.org/2000/svg" xmlns:xlink="http://www.w3.org/1999/xlink" version="1.1"><rect x="0" y="0" width="900" height="600" fill="#001220"></rect><defs><linearGradient id="grad1_0" x1="33.3%" y1="100%" x2="100%" y2="0%"><stop offset="20%" stop-color="#001220" stop-opacity="1"></stop><stop offset="80%" stop-color="#001220" stop-opacity="1"></stop></linearGradient></defs><defs><linearGradient id="grad2_0" x1="0%" y1="100%" x2="66.7%" y2="0%"><stop offset="20%" stop-color="#001220" stop-opacity="1"></stop><stop offset="80%" stop-color="#001220" stop-opacity="1"></stop></linearGradient></defs><g transform="translate(900, 600)"><path d="M-378.6 0C-357.4 -42.5 -336.2 -85 -321.5 -133.2C-306.8 -181.4 -298.5 -235.2 -267.7 -267.7C-236.9 -300.2 -183.5 -311.2 -135.1 -326.1C-86.7 -341 -43.4 -359.8 0 -378.6L0 0Z" fill="#009473"></path></g><g transform="translate(0, 0)"><path d="M378.6 0C362.8 47.2 347.1 94.5 325.2 134.7C303.3 174.9 275.4 208.1 246.1 246.1C216.8 284.1 186.1 326.9 144.9 349.8C103.6 372.7 51.8 375.6 0 378.6L0 0Z" fill="#009473"></path></g></svg>