<svg id="visual" viewBox="0 0 900 600" width="900" height="600" xmlns="http://www.w3.org/2000/svg" xmlns:xlink="http://www.w3.org/1999/xlink" version="1.1"><rect x="0" y="0" width="900" height="600" fill="#001220"></rect><defs><linearGradient id="grad1_0" x1="33.3%" y1="0%" x2="100%" y2="100%"><stop offset="20%" stop-color="#001220" stop-opacity="1"></stop><stop offset="80%" stop-color="#001220" stop-opacity="1"></stop></linearGradient></defs><defs><linearGradient id="grad2_0" x1="0%" y1="0%" x2="66.7%" y2="100%"><stop offset="20%" stop-color="#001220" stop-opacity="1"></stop><stop offset="80%" stop-color="#001220" stop-opacity="1"></stop></linearGradient></defs><g transform="translate(900, 0)"><path d="M0 378.6C-48.8 372.7 -97.7 366.9 -144.9 349.8C-192.1 332.7 -237.7 304.3 -265.9 265.9C-294 227.4 -304.7 178.8 -320.6 132.8C-336.5 86.8 -357.5 43.4 -378.6 0L0 0Z" fill="#FBAE3C"></path></g><g transform="translate(0, 600)"><path d="M0 -378.6C46.5 -366.5 93 -354.3 140.1 -338.1C187.1 -322 234.6 -301.7 267.7 -267.7C300.8 -233.7 319.3 -185.8 335.4 -138.9C351.4 -92 365 -46 378.6 0L0 0Z" fill="#FBAE3C"></path></g></svg>