<svg id="visual" viewBox="0 0 900 600" width="900" height="600" xmlns="http://www.w3.org/2000/svg" xmlns:xlink="http://www.w3.org/1999/xlink" version="1.1"><rect x="0" y="0" width="900" height="600" fill="#001220"></rect><defs><linearGradient id="grad1_0" x1="33.3%" y1="0%" x2="100%" y2="100%"><stop offset="20%" stop-color="#001220" stop-opacity="1"></stop><stop offset="80%" stop-color="#001220" stop-opacity="1"></stop></linearGradient></defs><defs><linearGradient id="grad2_0" x1="0%" y1="0%" x2="66.7%" y2="100%"><stop offset="20%" stop-color="#001220" stop-opacity="1"></stop><stop offset="80%" stop-color="#001220" stop-opacity="1"></stop></linearGradient></defs><g transform="translate(900, 0)"><path d="M0 378.6C-42.5 357.4 -85 336.2 -133.2 321.5C-181.4 306.8 -235.2 298.5 -267.7 267.7C-300.2 236.9 -311.2 183.5 -326.1 135.1C-341 86.7 -359.8 43.4 -378.6 0L0 0Z" fill="#6600FF"></path></g><g transform="translate(0, 600)"><path d="M0 -378.6C47.2 -362.8 94.5 -347.1 134.7 -325.2C174.9 -303.3 208.1 -275.4 246.1 -246.1C284.1 -216.8 326.9 -186.1 349.8 -144.9C372.7 -103.6 375.6 -51.8 378.6 0L0 0Z" fill="#6600FF"></path></g></svg>