<svg id="visual" viewBox="0 0 1920 1080" width="1920" height="1080" xmlns="http://www.w3.org/2000/svg" xmlns:xlink="http://www.w3.org/1999/xlink" version="1.1"><rect x="0" y="0" width="1920" height="1080" fill="#002233"></rect><path d="M0 765L35.5 770.7C71 776.3 142 787.7 213.2 817.3C284.3 847 355.7 895 426.8 918.2C498 941.3 569 939.7 640 918.5C711 897.3 782 856.7 853.2 841C924.3 825.3 995.7 834.7 1066.8 850C1138 865.3 1209 886.7 1280 892.8C1351 899 1422 890 1493.2 871.7C1564.3 853.3 1635.7 825.7 1706.8 833.5C1778 841.3 1849 884.7 1884.5 906.3L1920 928L1920 1081L1884.5 1081C1849 1081 1778 1081 1706.8 1081C1635.7 1081 1564.3 1081 1493.2 1081C1422 1081 1351 1081 1280 1081C1209 1081 1138 1081 1066.8 1081C995.7 1081 924.3 1081 853.2 1081C782 1081 711 1081 640 1081C569 1081 498 1081 426.8 1081C355.7 1081 284.3 1081 213.2 1081C142 1081 71 1081 35.5 1081L0 1081Z" fill="#0066FF" stroke-linecap="round" stroke-linejoin="miter"></path></svg>